<mxfile host="app.diagrams.net" modified="2023-07-03T15:18:09.741Z" agent="Mozilla/5.0 (Macintosh; Intel Mac OS X 10_15_7) AppleWebKit/537.36 (KHTML, like Gecko) Chrome/114.0.0.0 Safari/537.36" version="21.2.1" etag="mgLt_AS4eCRLaipEkW4U" type="github">
  <diagram name="Page-1" id="ExPfrqQ8qEQDkWYJzq1j">
    <mxGraphModel>
      <root>
        <mxCell id="0" />
        <mxCell id="1" parent="0" />
      </root>
    </mxGraphModel>
  </diagram>
</mxfile>
